<?xml version="1.0" standalone="no"?>
<!DOCTYPE svg PUBLIC "-//W3C//DTD SVG 20010904//EN"
 "http://www.w3.org/TR/2001/REC-SVG-20010904/DTD/svg10.dtd">
<svg version="1.0" xmlns="http://www.w3.org/2000/svg"
 width="494.000000pt" height="378.000000pt" viewBox="0 0 494.000000 378.000000"
 preserveAspectRatio="xMidYMid meet">
<metadata>
Created by potrace 1.15, written by Peter Selinger 2001-2017
</metadata>
<g transform="translate(0.000000,378.000000) scale(0.100000,-0.100000)"
fill="#000000" stroke="none">
<path d="M2147 3746 c-17 -45 -6 -125 29 -217 30 -79 35 -102 30 -144 -8 -67
-47 -141 -72 -137 -10 2 -67 6 -125 9 -137 7 -194 -9 -234 -67 -15 -22 -29
-40 -32 -40 -16 0 -86 59 -105 88 -35 54 -39 67 -49 175 -9 104 -23 139 -74
187 l-26 24 20 -44 c25 -55 26 -107 5 -197 -10 -42 -14 -90 -11 -125 6 -67 52
-173 98 -226 22 -25 29 -41 24 -56 -17 -56 -146 -987 -142 -1027 6 -74 116
-293 325 -646 l95 -161 146 -70 c80 -39 166 -75 191 -82 25 -6 53 -13 63 -16
13 -4 17 -17 17 -62 0 -79 25 -185 55 -239 l25 -46 -96 -245 c-113 -285 -96
-268 -274 -281 -77 -5 -116 -13 -136 -26 -19 -12 -25 -13 -22 -4 3 8 42 100
87 206 l81 191 -72 182 -72 182 -122 82 -122 81 30 100 c28 94 29 100 11 112
-9 8 -91 53 -181 101 -123 66 -189 108 -269 174 -58 49 -110 88 -116 88 -5 0
-62 -33 -126 -74 -101 -64 -137 -81 -279 -127 l-164 -54 -120 -169 -120 -168
25 -93 25 -92 -109 -54 -109 -53 -46 -146 c-25 -80 -54 -173 -65 -207 l-20
-61 71 -116 72 -116 852 2 c847 3 853 3 848 -17 -5 -17 -1 -16 28 8 32 27 36
28 99 20 63 -8 101 -9 201 -5 25 1 92 0 148 -1 89 -2 106 -5 118 -21 14 -19
14 -19 14 1 0 42 -28 57 -120 68 -30 3 -62 10 -70 15 -16 10 -29 -23 205 503
l140 314 125 7 c69 3 136 9 150 12 24 5 27 1 43 -48 25 -79 84 -172 149 -234
l58 -55 -69 -237 -68 -237 -39 -13 c-22 -7 -88 -17 -148 -21 -106 -8 -110 -9
-138 -40 -39 -44 -35 -55 9 -25 35 23 43 25 98 17 59 -8 98 -9 200 -5 28 1 94
0 147 -1 78 -2 101 -7 117 -22 18 -15 21 -16 21 -3 0 36 -34 59 -103 69 -38 5
-77 14 -87 19 -18 10 -18 11 0 63 10 28 59 169 110 312 91 259 91 260 81 314
-12 59 -15 202 -5 239 4 14 32 37 78 64 71 42 172 135 204 190 l17 30 73 -7
c69 -6 80 -11 195 -84 270 -171 528 -316 678 -380 107 -45 189 -63 189 -40 0
20 -182 196 -350 338 -80 68 -148 126 -152 130 -4 3 145 6 330 6 355 0 392 4
392 44 0 29 -45 56 -166 99 -60 22 -158 59 -219 83 -102 40 -108 43 -80 51
257 65 365 105 365 132 0 32 -68 39 -450 43 l-376 5 -134 62 c-129 59 -135 63
-141 96 -4 20 -19 44 -35 57 -16 12 -147 75 -291 139 -152 67 -263 122 -263
129 0 32 -58 78 -154 125 -115 56 -197 80 -273 80 -43 0 -64 7 -115 38 -35 21
-100 58 -145 83 -75 40 -83 47 -83 74 -1 17 -5 77 -10 135 -8 104 -8 105 17
132 35 37 101 58 205 65 l87 6 -19 36 c-36 71 -84 97 -230 121 -100 17 -105
22 -89 99 26 133 -3 249 -85 345 -53 63 -67 88 -81 151 -8 35 -13 44 -18 31z
m-564 -2596 c5 -4 -4 -47 -18 -94 -15 -48 -24 -93 -22 -100 3 -8 64 -53 136
-101 l130 -88 41 -120 c22 -67 39 -122 37 -123 -1 -2 -25 46 -52 106 l-49 109
-134 93 c-74 51 -140 96 -146 100 -7 4 -1 39 18 104 23 79 25 98 14 105 -7 5
-59 37 -115 70 -57 34 -103 63 -103 64 0 5 253 -115 263 -125z m-481 -124 c3
-5 12 -39 19 -75 6 -36 15 -73 20 -82 4 -8 40 -23 84 -33 156 -37 139 -22 159
-137 10 -55 16 -102 14 -104 -1 -2 -16 38 -32 89 l-28 92 -112 28 -112 27 -19
90 -18 90 -106 54 -106 53 -125 -65 -126 -66 -47 -137 -48 -136 -129 -64 -130
-64 -39 -126 c-55 -174 -55 -173 -36 -210 24 -46 12 -47 -23 -2 l-31 39 50
158 c27 86 51 160 53 164 2 3 62 35 133 70 l128 63 45 125 c25 69 49 132 55
139 5 8 68 45 140 83 l130 70 115 -61 c63 -34 118 -66 122 -72z m-119 -418
c-6 -7 -36 -48 -67 -90 -38 -53 -65 -80 -84 -85 -15 -3 -74 -18 -132 -33
l-105 -26 -39 -107 c-22 -59 -40 -106 -42 -104 -3 3 52 227 58 232 1 2 64 20
138 40 l134 36 69 75 c38 40 71 74 74 74 3 0 1 -6 -4 -12z"/>
<path d="M1041 3204 c-35 -29 -40 -66 -15 -103 13 -18 14 -28 5 -47 -7 -16
-11 -92 -11 -201 l0 -176 -130 7 -130 7 0 -67 0 -66 53 7 c68 9 486 9 555 0
l52 -7 0 66 0 67 -130 -7 -130 -7 0 182 c0 100 -4 191 -10 201 -7 13 -6 21 5
30 15 13 20 65 9 95 -7 17 -54 45 -78 45 -8 0 -28 -12 -45 -26z"/>
<path d="M985 2173 c4 -214 10 -445 14 -516 l6 -127 66 44 c66 44 67 45 84 25
10 -10 21 -19 25 -19 4 0 10 147 14 328 3 180 9 400 13 490 l6 162 -118 0
-118 0 8 -387z"/>
</g>
</svg>
